<mxfile host="app.diagrams.net" modified="2024-01-16T20:22:35.071Z" agent="Mozilla/5.0 (X11; Linux x86_64; rv:121.0) Gecko/20100101 Firefox/121.0" etag="nbnalE_uclWoSenTzMhF" version="22.1.18" type="github">
  <diagram id="C5RBs43oDa-KdzZeNtuy" name="Page-1">
    <mxGraphModel dx="819" dy="435" grid="1" gridSize="10" guides="1" tooltips="1" connect="1" arrows="1" fold="1" page="1" pageScale="1" pageWidth="827" pageHeight="1169" math="0" shadow="0">
      <root>
        <mxCell id="WIyWlLk6GJQsqaUBKTNV-0" />
        <mxCell id="WIyWlLk6GJQsqaUBKTNV-1" parent="WIyWlLk6GJQsqaUBKTNV-0" />
        <mxCell id="SmAWI_ZK_w_2rHc6F90--4" value="Sensors" style="rounded=0;whiteSpace=wrap;html=1;rotation=-90;" vertex="1" parent="WIyWlLk6GJQsqaUBKTNV-1">
          <mxGeometry x="70" y="170" width="270" height="20" as="geometry" />
        </mxCell>
        <mxCell id="SmAWI_ZK_w_2rHc6F90--7" style="edgeStyle=orthogonalEdgeStyle;rounded=0;orthogonalLoop=1;jettySize=auto;html=1;exitX=0.5;exitY=1;exitDx=0;exitDy=0;entryX=0.5;entryY=0;entryDx=0;entryDy=0;" edge="1" parent="WIyWlLk6GJQsqaUBKTNV-1" source="SmAWI_ZK_w_2rHc6F90--5" target="SmAWI_ZK_w_2rHc6F90--6">
          <mxGeometry relative="1" as="geometry" />
        </mxCell>
        <mxCell id="SmAWI_ZK_w_2rHc6F90--16" value="Motion Task" style="edgeLabel;html=1;align=center;verticalAlign=middle;resizable=0;points=[];" vertex="1" connectable="0" parent="SmAWI_ZK_w_2rHc6F90--7">
          <mxGeometry x="-0.3778" relative="1" as="geometry">
            <mxPoint x="38" y="5" as="offset" />
          </mxGeometry>
        </mxCell>
        <mxCell id="SmAWI_ZK_w_2rHc6F90--14" value="" style="edgeStyle=orthogonalEdgeStyle;rounded=0;orthogonalLoop=1;jettySize=auto;html=1;endArrow=none;endFill=0;startArrow=classic;startFill=1;" edge="1" parent="WIyWlLk6GJQsqaUBKTNV-1" source="SmAWI_ZK_w_2rHc6F90--5">
          <mxGeometry relative="1" as="geometry">
            <mxPoint x="310" y="20" as="targetPoint" />
          </mxGeometry>
        </mxCell>
        <mxCell id="SmAWI_ZK_w_2rHc6F90--15" value="Control Objective" style="edgeLabel;html=1;align=center;verticalAlign=middle;resizable=0;points=[];" vertex="1" connectable="0" parent="SmAWI_ZK_w_2rHc6F90--14">
          <mxGeometry x="0.1833" y="2" relative="1" as="geometry">
            <mxPoint x="52" y="-2" as="offset" />
          </mxGeometry>
        </mxCell>
        <mxCell id="SmAWI_ZK_w_2rHc6F90--5" value="Intellectual Level" style="rounded=0;whiteSpace=wrap;html=1;" vertex="1" parent="WIyWlLk6GJQsqaUBKTNV-1">
          <mxGeometry x="250" y="50" width="120" height="30" as="geometry" />
        </mxCell>
        <mxCell id="SmAWI_ZK_w_2rHc6F90--17" style="edgeStyle=orthogonalEdgeStyle;rounded=0;orthogonalLoop=1;jettySize=auto;html=1;exitX=0.5;exitY=1;exitDx=0;exitDy=0;entryX=0.5;entryY=0;entryDx=0;entryDy=0;" edge="1" parent="WIyWlLk6GJQsqaUBKTNV-1" source="SmAWI_ZK_w_2rHc6F90--6" target="SmAWI_ZK_w_2rHc6F90--8">
          <mxGeometry relative="1" as="geometry" />
        </mxCell>
        <mxCell id="SmAWI_ZK_w_2rHc6F90--18" value="Motion Plan" style="edgeLabel;html=1;align=center;verticalAlign=middle;resizable=0;points=[];" vertex="1" connectable="0" parent="SmAWI_ZK_w_2rHc6F90--17">
          <mxGeometry x="-0.2444" relative="1" as="geometry">
            <mxPoint x="40" y="1" as="offset" />
          </mxGeometry>
        </mxCell>
        <mxCell id="SmAWI_ZK_w_2rHc6F90--6" value="Strategic Level" style="rounded=0;whiteSpace=wrap;html=1;" vertex="1" parent="WIyWlLk6GJQsqaUBKTNV-1">
          <mxGeometry x="250" y="110" width="120" height="30" as="geometry" />
        </mxCell>
        <mxCell id="SmAWI_ZK_w_2rHc6F90--21" style="edgeStyle=orthogonalEdgeStyle;rounded=0;orthogonalLoop=1;jettySize=auto;html=1;exitX=0.5;exitY=1;exitDx=0;exitDy=0;entryX=0.5;entryY=0;entryDx=0;entryDy=0;" edge="1" parent="WIyWlLk6GJQsqaUBKTNV-1" source="SmAWI_ZK_w_2rHc6F90--8" target="SmAWI_ZK_w_2rHc6F90--20">
          <mxGeometry relative="1" as="geometry" />
        </mxCell>
        <mxCell id="SmAWI_ZK_w_2rHc6F90--23" value="Control Program" style="edgeLabel;html=1;align=center;verticalAlign=middle;resizable=0;points=[];" vertex="1" connectable="0" parent="SmAWI_ZK_w_2rHc6F90--21">
          <mxGeometry x="-0.2889" y="-1" relative="1" as="geometry">
            <mxPoint x="51" y="3" as="offset" />
          </mxGeometry>
        </mxCell>
        <mxCell id="SmAWI_ZK_w_2rHc6F90--8" value="Tactical Level" style="rounded=0;whiteSpace=wrap;html=1;" vertex="1" parent="WIyWlLk6GJQsqaUBKTNV-1">
          <mxGeometry x="250" y="170" width="120" height="30" as="geometry" />
        </mxCell>
        <mxCell id="SmAWI_ZK_w_2rHc6F90--30" style="edgeStyle=orthogonalEdgeStyle;rounded=0;orthogonalLoop=1;jettySize=auto;html=1;exitX=0;exitY=0.5;exitDx=0;exitDy=0;entryX=0;entryY=0.5;entryDx=0;entryDy=0;" edge="1" parent="WIyWlLk6GJQsqaUBKTNV-1" source="SmAWI_ZK_w_2rHc6F90--9" target="SmAWI_ZK_w_2rHc6F90--4">
          <mxGeometry relative="1" as="geometry" />
        </mxCell>
        <mxCell id="SmAWI_ZK_w_2rHc6F90--37" value="System State" style="edgeLabel;html=1;align=center;verticalAlign=middle;resizable=0;points=[];" vertex="1" connectable="0" parent="SmAWI_ZK_w_2rHc6F90--30">
          <mxGeometry x="-0.0325" y="2" relative="1" as="geometry">
            <mxPoint y="8" as="offset" />
          </mxGeometry>
        </mxCell>
        <mxCell id="SmAWI_ZK_w_2rHc6F90--9" value="Mechanical system" style="rounded=0;whiteSpace=wrap;html=1;" vertex="1" parent="WIyWlLk6GJQsqaUBKTNV-1">
          <mxGeometry x="250" y="330" width="120" height="40" as="geometry" />
        </mxCell>
        <mxCell id="SmAWI_ZK_w_2rHc6F90--20" value="Control Program" style="rounded=0;whiteSpace=wrap;html=1;" vertex="1" parent="WIyWlLk6GJQsqaUBKTNV-1">
          <mxGeometry x="250" y="230" width="120" height="30" as="geometry" />
        </mxCell>
        <mxCell id="SmAWI_ZK_w_2rHc6F90--27" style="edgeStyle=orthogonalEdgeStyle;rounded=0;orthogonalLoop=1;jettySize=auto;html=1;entryX=0.5;entryY=0;entryDx=0;entryDy=0;exitX=0.5;exitY=1;exitDx=0;exitDy=0;" edge="1" parent="WIyWlLk6GJQsqaUBKTNV-1" source="SmAWI_ZK_w_2rHc6F90--20" target="SmAWI_ZK_w_2rHc6F90--9">
          <mxGeometry relative="1" as="geometry">
            <mxPoint x="310" y="320" as="sourcePoint" />
          </mxGeometry>
        </mxCell>
        <mxCell id="SmAWI_ZK_w_2rHc6F90--28" value="Control Signals for Actuators" style="edgeLabel;html=1;align=center;verticalAlign=middle;resizable=0;points=[];" vertex="1" connectable="0" parent="SmAWI_ZK_w_2rHc6F90--27">
          <mxGeometry x="0.0778" y="1" relative="1" as="geometry">
            <mxPoint x="79" y="-2" as="offset" />
          </mxGeometry>
        </mxCell>
        <mxCell id="SmAWI_ZK_w_2rHc6F90--31" style="edgeStyle=orthogonalEdgeStyle;rounded=0;orthogonalLoop=1;jettySize=auto;html=1;exitX=0;exitY=0.5;exitDx=0;exitDy=0;entryX=0.926;entryY=1.021;entryDx=0;entryDy=0;entryPerimeter=0;endArrow=none;endFill=0;startArrow=classic;startFill=1;" edge="1" parent="WIyWlLk6GJQsqaUBKTNV-1" source="SmAWI_ZK_w_2rHc6F90--5" target="SmAWI_ZK_w_2rHc6F90--4">
          <mxGeometry relative="1" as="geometry">
            <mxPoint x="220" y="65" as="targetPoint" />
          </mxGeometry>
        </mxCell>
        <mxCell id="SmAWI_ZK_w_2rHc6F90--33" style="edgeStyle=orthogonalEdgeStyle;rounded=0;orthogonalLoop=1;jettySize=auto;html=1;exitX=0;exitY=0.5;exitDx=0;exitDy=0;entryX=0.707;entryY=1.017;entryDx=0;entryDy=0;entryPerimeter=0;endArrow=none;endFill=0;startArrow=classic;startFill=1;" edge="1" parent="WIyWlLk6GJQsqaUBKTNV-1" source="SmAWI_ZK_w_2rHc6F90--6" target="SmAWI_ZK_w_2rHc6F90--4">
          <mxGeometry relative="1" as="geometry">
            <mxPoint x="270" y="85" as="sourcePoint" />
            <mxPoint x="235" y="85" as="targetPoint" />
          </mxGeometry>
        </mxCell>
        <mxCell id="SmAWI_ZK_w_2rHc6F90--34" style="edgeStyle=orthogonalEdgeStyle;rounded=0;orthogonalLoop=1;jettySize=auto;html=1;exitX=0;exitY=0.5;exitDx=0;exitDy=0;entryX=0.478;entryY=1.033;entryDx=0;entryDy=0;entryPerimeter=0;endArrow=none;endFill=0;startArrow=classic;startFill=1;" edge="1" parent="WIyWlLk6GJQsqaUBKTNV-1" source="SmAWI_ZK_w_2rHc6F90--8" target="SmAWI_ZK_w_2rHc6F90--4">
          <mxGeometry relative="1" as="geometry" />
        </mxCell>
        <mxCell id="SmAWI_ZK_w_2rHc6F90--35" style="edgeStyle=orthogonalEdgeStyle;rounded=0;orthogonalLoop=1;jettySize=auto;html=1;exitX=0;exitY=0.5;exitDx=0;exitDy=0;entryX=0.259;entryY=1.009;entryDx=0;entryDy=0;entryPerimeter=0;endArrow=none;endFill=0;startArrow=classic;startFill=1;" edge="1" parent="WIyWlLk6GJQsqaUBKTNV-1" source="SmAWI_ZK_w_2rHc6F90--20" target="SmAWI_ZK_w_2rHc6F90--4">
          <mxGeometry relative="1" as="geometry" />
        </mxCell>
      </root>
    </mxGraphModel>
  </diagram>
</mxfile>
